<svg width="20" height="20" viewBox="0 0 20 20" fill="none" xmlns="http://www.w3.org/2000/svg">
<path d="M10 1.66663C5.40833 1.66663 1.66666 5.40829 1.66666 9.99996C1.66666 14.5916 5.40833 18.3333 10 18.3333C14.5917 18.3333 18.3333 14.5916 18.3333 9.99996C18.3333 5.40829 14.5917 1.66663 10 1.66663ZM13.3833 11.4916C13.2583 11.6166 13.1 11.675 12.9417 11.675C12.7833 11.675 12.625 11.6166 12.5 11.4916L10 8.99163L7.5 11.4916C7.25833 11.7333 6.85833 11.7333 6.61666 11.4916C6.375 11.25 6.375 10.85 6.61666 10.6083L9.55833 7.66663C9.8 7.42496 10.2 7.42496 10.4417 7.66663L13.3833 10.6083C13.625 10.8583 13.625 11.25 13.3833 11.4916Z" fill="#20BF6B"/>
</svg>
